<svg xmlns="http://www.w3.org/2000/svg" width="131.433" height="21.957" viewBox="0 0 131.433 21.957">
  <g id="그룹_460" data-name="그룹 460" transform="translate(-228 -694.181)">
    <path id="패스_1100" data-name="패스 1100" d="M327.416,360.763a5.721,5.721,0,0,1,2.215,2.208,6.754,6.754,0,0,1,0,6.371,5.716,5.716,0,0,1-2.215,2.209,6.8,6.8,0,0,1-6.388,0,5.715,5.715,0,0,1-2.216-2.209,6.754,6.754,0,0,1,0-6.371,5.719,5.719,0,0,1,2.216-2.208,6.8,6.8,0,0,1,6.388,0Zm-5.2,3.147a3.669,3.669,0,0,0,0,4.5,2.736,2.736,0,0,0,4.013,0,3.674,3.674,0,0,0,0-4.5,2.732,2.732,0,0,0-4.013,0Z" transform="translate(-72.821 338.588)" fill="#4581f8"/>
    <path id="패스_1101" data-name="패스 1101" d="M369.628,354.107h-5.289v13.187h-3.634V354.107h-5.29V350.86h14.212Z" transform="translate(-93.379 343.641)" fill="#4581f8"/>
    <path id="패스_1102" data-name="패스 1102" d="M390.687,360.763a5.722,5.722,0,0,1,2.216,2.208,6.75,6.75,0,0,1,0,6.371,5.717,5.717,0,0,1-2.216,2.209,6.8,6.8,0,0,1-6.387,0,5.713,5.713,0,0,1-2.217-2.209,6.754,6.754,0,0,1,0-6.371,5.718,5.718,0,0,1,2.217-2.208,6.8,6.8,0,0,1,6.387,0Zm-5.2,3.147a3.671,3.671,0,0,0,0,4.5,2.735,2.735,0,0,0,4.013,0,3.674,3.674,0,0,0,0-4.5,2.731,2.731,0,0,0-4.013,0Z" transform="translate(-106.932 338.87)" fill="#4581f8"/>
    <path id="패스_1103" data-name="패스 1103" d="M413.377,376.693a5.023,5.023,0,0,1-1.946-1.542,4.947,4.947,0,0,1-.919-2.158h3.594q.3,1.25,2.176,1.25a2.459,2.459,0,0,0,1.8-.666,2.375,2.375,0,0,0,.679-1.774v-1.25a3.891,3.891,0,0,1-3.354,1.492,5.691,5.691,0,0,1-2.954-.766,5.25,5.25,0,0,1-2.016-2.138,6.531,6.531,0,0,1-.719-3.084,6.692,6.692,0,0,1,.719-3.136,5.386,5.386,0,0,1,2.016-2.167,5.58,5.58,0,0,1,2.954-.787,3.893,3.893,0,0,1,3.354,1.493v-1.486h3.553v11.87a5.182,5.182,0,0,1-.778,2.814,5.265,5.265,0,0,1-2.146,1.926,7.492,7.492,0,0,1-6.008.111Zm4.661-8.459a3.435,3.435,0,0,0,0-4.355,2.683,2.683,0,0,0-2.076-.847,2.573,2.573,0,0,0-2.016.847,3.5,3.5,0,0,0,0,4.355,2.576,2.576,0,0,0,2.016.846A2.687,2.687,0,0,0,418.038,368.234Z" transform="translate(-121.825 338.87)" fill="#4581f8"/>
    <path id="패스_1104" data-name="패스 1104" d="M442.721,371.551a5.63,5.63,0,0,1-2.166-2.209,6.9,6.9,0,0,1,0-6.371,5.634,5.634,0,0,1,2.166-2.208,6.6,6.6,0,0,1,6.288,0,5.639,5.639,0,0,1,2.166,2.208,6.492,6.492,0,0,1,.778,3.187,8.173,8.173,0,0,1-.079,1.148H443.31a2.64,2.64,0,0,0,.877,1.593,2.53,2.53,0,0,0,1.678.565,3.384,3.384,0,0,0,1.347-.253,1.546,1.546,0,0,0,.809-.674h3.573a4.514,4.514,0,0,1-1.118,1.986,5.71,5.71,0,0,1-2.016,1.34,6.862,6.862,0,0,1-2.595.485A6.192,6.192,0,0,1,442.721,371.551Zm5.759-6.563a2.716,2.716,0,0,0-.9-1.623,2.623,2.623,0,0,0-1.716-.555,2.543,2.543,0,0,0-1.7.555,2.775,2.775,0,0,0-.878,1.623Z" transform="translate(-137.575 338.87)" fill="#4581f8"/>
    <path id="패스_1105" data-name="패스 1105" d="M486.234,350.86h3.553v5.828a3.8,3.8,0,0,1,3.274-1.493,4.494,4.494,0,0,1,2.4.636,4.2,4.2,0,0,1,1.607,1.824,6.445,6.445,0,0,1,.569,2.8v6.836H494.08v-6.231A3.437,3.437,0,0,0,493.55,359a1.783,1.783,0,0,0-1.527-.716,1.947,1.947,0,0,0-1.637.787,3.481,3.481,0,0,0-.6,2.157v6.069h-3.553Z" transform="translate(-161.915 343.641)" fill="#4581f8"/>
    <path id="패스_1106" data-name="패스 1106" d="M516.139,371.551a5.63,5.63,0,0,1-2.166-2.209,6.9,6.9,0,0,1,0-6.371,5.635,5.635,0,0,1,2.166-2.208,6.6,6.6,0,0,1,6.288,0,5.639,5.639,0,0,1,2.166,2.208,6.491,6.491,0,0,1,.778,3.187,8.178,8.178,0,0,1-.079,1.148h-8.564a2.64,2.64,0,0,0,.877,1.593,2.531,2.531,0,0,0,1.678.565,3.384,3.384,0,0,0,1.347-.253,1.546,1.546,0,0,0,.809-.674h3.572a4.507,4.507,0,0,1-1.118,1.986,5.71,5.71,0,0,1-2.016,1.34,6.862,6.862,0,0,1-2.595.485A6.193,6.193,0,0,1,516.139,371.551Zm5.759-6.563a2.718,2.718,0,0,0-.9-1.623,2.624,2.624,0,0,0-1.717-.555,2.541,2.541,0,0,0-1.7.555,2.772,2.772,0,0,0-.879,1.623Z" transform="translate(-176.039 338.87)" fill="#4581f8"/>
    <path id="패스_1107" data-name="패스 1107" d="M295.336,368.781h5.646a.239.239,0,0,1,.239.239v5.666a.239.239,0,0,0,.408.17l2.8-2.766a.241.241,0,0,0,.071-.17V365.76a.239.239,0,0,0-.239-.239h-6.2a.239.239,0,0,0-.171.072l-2.724,2.781A.239.239,0,0,0,295.336,368.781Z" transform="translate(-60.814 335.678)" fill="#ffcd5f"/>
    <path id="패스_1108" data-name="패스 1108" d="M292.723,367.534h-2.247a8.738,8.738,0,0,1-8.539-7.6,8.386,8.386,0,0,1,8.341-9.152h7.313v3.247h-7.175a5.217,5.217,0,0,0-5.2,4.262,5.136,5.136,0,0,0,5.058,6h2.445Z" transform="translate(-53.901 343.399)" fill="#4581f8"/>
    <path id="패스_1109" data-name="패스 1109" d="M471.877,356.424v-3.233h-3.553v3.233h-2.6v3.086h2.6v9.006h3.553v-9.006h2.6v-3.086Z" transform="translate(-151.171 342.42)" fill="#4581f8"/>
    <path id="패스_1110" data-name="패스 1110" d="M550.784,360.168a4.8,4.8,0,0,0-1.538-.2,3.8,3.8,0,0,0-3.273,1.493v-1.486h-3.554v12.092h3.554v-6.049a2.775,2.775,0,0,1,.808-2.117,3.1,3.1,0,0,1,2.225-.767,3.829,3.829,0,0,1,1.777.386Z" transform="translate(-191.35 338.87)" fill="#4581f8"/>
  </g>
</svg>
